<?xml version="1.0" standalone="no"?><!DOCTYPE svg PUBLIC "-//W3C//DTD SVG 1.1//EN" "http://www.w3.org/Graphics/SVG/1.1/DTD/svg11.dtd"><svg t="1567158636523" class="icon" viewBox="0 0 1236 1024" version="1.1" xmlns="http://www.w3.org/2000/svg" p-id="12543" id="mx_n_1567158636525" width="38.625" height="32" xmlns:xlink="http://www.w3.org/1999/xlink"><defs><style type="text/css"></style></defs><path d="M996.245736 624.717283h-741.916981a43.742189 43.742189 0 0 1-43.742189-43.751849V297.327094c0-24.160604 19.591245-43.742189 43.751849-43.742188h593.089208c16.268075 0 31.183698 9.013132 38.738113 23.416754l148.818113 283.63834a43.751849 43.751849 0 0 1-38.738113 64.077283z" fill="#D1D3D4" p-id="12544"></path><path d="M1034.993509 560.64L886.156075 277.00166a43.761509 43.761509 0 0 0-38.738113-23.416754H614.950642v371.132377h381.295094a43.751849 43.751849 0 0 0 38.738113-64.077283z" fill="#BCBEC0" p-id="12545"></path><path d="M571.198792 624.717283a43.742189 43.742189 0 0 1-43.751849-43.751849V297.317434a43.742189 43.742189 0 0 1 87.494038 0v283.648c0 24.160604-19.581585 43.751849-43.742189 43.751849z" fill="#A7A9AC" p-id="12546"></path><path d="M254.338415 624.717283h-210.596226A43.742189 43.742189 0 0 1 0 580.965434V297.327094c0-24.160604 19.581585-43.742189 43.742189-43.742188h210.596226c24.150943 0 43.742189 19.581585 43.742189 43.742188v283.63834a43.742189 43.742189 0 0 1-43.751849 43.751849z" fill="#57BDB7" p-id="12547"></path><path d="M1192.786113 908.365283H939.036981c-24.305509 0-43.606943-19.890717-43.751849-44.186566-0.560302-92.758943-140.703396-92.865208-141.263698 0-0.144906 24.295849-19.44634 44.176906-43.742189 44.176906H479.618415c-24.295849 0-43.597283-19.881057-43.742189-44.176906-0.560302-92.739623-140.732377-92.865208-141.292679 0-0.144906 24.295849-19.456 44.176906-43.751849 44.176906H43.742189A43.742189 43.742189 0 0 1 0 864.613434V537.213585h1192.786113c24.150943 0 43.742189 19.591245 43.742189 43.742189v283.648a43.742189 43.742189 0 0 1-43.742189 43.742188z" fill="#65C6BB" p-id="12548"></path><path d="M1192.786113 537.223245H614.940981v371.132378h95.338264c24.295849 0 43.597283-19.881057 43.742189-44.176906 0.560302-92.720302 140.703396-92.865208 141.263698 0 0.144906 24.295849 19.44634 44.176906 43.742189 44.176906h253.758792c24.150943 0 43.742189-19.591245 43.742189-43.742189V580.965434c0-24.150943-19.591245-43.742189-43.742189-43.742189z" fill="#57BDB7" p-id="12549"></path><path d="M527.446943 537.223245h87.484378v371.132378h-87.484378z" fill="#1DA49C" p-id="12550"></path><path d="M229.318038 908.365283H43.742189A43.742189 43.742189 0 0 1 0 864.603774V679.047245h185.575849c24.150943 0 43.742189 19.591245 43.742189 43.742189v185.575849z" fill="#F59D00" p-id="12551"></path><path d="M1023.632906 341.069283H0V45.007698C0 20.847094 19.581585 1.255849 43.742189 1.255849h979.890717c24.160604 0 43.742189 19.591245 43.742188 43.751849v252.319396a43.742189 43.742189 0 0 1-43.742188 43.742189z" fill="#65C6BB" p-id="12552"></path><path d="M1023.632906 1.255849H614.940981v339.813434h408.691925c24.160604 0 43.742189-19.581585 43.742188-43.742189V44.998038c0-24.150943-19.581585-43.742189-43.742188-43.742189z" fill="#57BDB7" p-id="12553"></path><path d="M365.239547 1022.744151c-87.204226 0-158.140377-70.945811-158.140377-158.140377 0-87.184906 70.936151-158.121057 158.140377-158.121057 87.194566 0 158.140377 70.936151 158.140378 158.121057 0 87.194566-70.936151 158.140377-158.140378 158.140377z" fill="#808285" p-id="12554"></path><path d="M1236.528302 766.541283h-185.575849a43.742189 43.742189 0 0 1-43.742189-43.742189V537.213585h185.575849c24.150943 0 43.742189 19.591245 43.742189 43.751849v185.566189z" fill="#E87E04" p-id="12555"></path><path d="M824.677434 1022.744151c-87.204226 0-158.140377-70.945811-158.140377-158.140377 0-87.184906 70.936151-158.121057 158.140377-158.121057 87.184906 0 158.111396 70.936151 158.111396 158.121057 0 87.194566-70.936151 158.140377-158.111396 158.140377z" fill="#6D6E71" p-id="12556"></path></svg>